<svg preserveAspectRatio="none" overflow="visible" style="display: block;" width="27.9409" height="27.9407" viewBox="0 0 27.9409 27.9407" fill="none" xmlns="http://www.w3.org/2000/svg">
<g id="play-list-8--player-television-movies-slider-media-tv-players-video-stack-entertainment">
<path id="Union" fill-rule="evenodd" clip-rule="evenodd" d="M2.95062 0C1.32104 0 0 1.32104 0 2.95062V19.5308C0 21.1605 1.32104 22.4815 2.95062 22.4815H19.5308C21.1605 22.4815 22.4815 21.1605 22.4815 19.5308V2.95062C22.4815 1.32104 21.1605 0 19.5308 0H2.95062ZM7.54224 15.32V7.16146C7.54294 7.02496 7.57974 6.89108 7.64886 6.77336C7.718 6.65566 7.81702 6.55832 7.93588 6.49122C8.05476 6.4241 8.18926 6.38962 8.32576 6.39124C8.46226 6.39288 8.5959 6.43056 8.71314 6.50048L15.7008 10.5609C15.8184 10.6288 15.9161 10.7266 15.984 10.8443C16.0519 10.9619 16.0877 11.0954 16.0877 11.2313C16.0877 11.3672 16.0519 11.5006 15.984 11.6183C15.9161 11.736 15.8184 11.8337 15.7008 11.9017L8.71314 15.981C8.5959 16.0509 8.46226 16.0886 8.32576 16.0902C8.18926 16.0918 8.05476 16.0574 7.93588 15.9903C7.81702 15.9231 7.718 15.8258 7.64886 15.7081C7.57974 15.5904 7.54294 15.4565 7.54224 15.32ZM27.9409 7C27.9409 6.17158 27.2693 5.5 26.4409 5.5C25.6125 5.5 24.9409 6.17158 24.9409 7V24.4967C24.9409 24.6145 24.8941 24.7275 24.8107 24.8107C24.7275 24.8941 24.6145 24.9407 24.4967 24.9407H7C6.17158 24.9407 5.5 25.6123 5.5 26.4407C5.5 27.2693 6.17158 27.9407 7 27.9407H24.4967C25.4101 27.9407 26.2863 27.5779 26.9321 26.9321C27.5779 26.2861 27.9409 25.4101 27.9409 24.4967V7Z" fill="black"/>
</g>
</svg>
