<svg preserveAspectRatio="none" overflow="visible" style="display: block;" width="20" height="19.8924" viewBox="0 0 20 19.8924" fill="none" xmlns="http://www.w3.org/2000/svg">
<g id="live-video">
<path id="Union" fill-rule="evenodd" clip-rule="evenodd" d="M11.5572 0.0130386C10.9726 -0.0784531 10.4245 0.321305 10.333 0.905922C10.2415 1.49055 10.6412 2.03863 11.2259 2.13013C14.9827 2.71808 17.8571 5.97053 17.8571 9.89235C17.8571 14.2317 14.3393 17.7495 9.99996 17.7495C6.68371 17.7495 3.8448 15.6947 2.69201 12.7848C2.47407 12.2346 1.85141 11.9653 1.30128 12.1833C0.751144 12.4012 0.481853 13.0239 0.699799 13.574C2.16529 17.2731 5.77544 19.8924 9.99996 19.8924C15.5229 19.8924 20 15.4153 20 9.89235C20 4.89868 16.3407 0.761651 11.5572 0.0130386ZM8.80544 0.837305C8.95294 1.41036 8.60796 1.99449 8.0349 2.14198C7.67403 2.23486 7.3232 2.35276 6.98431 2.49375C6.43799 2.72105 5.81083 2.46242 5.58353 1.91608C5.35623 1.36973 5.61486 0.742582 6.1612 0.515285C6.59321 0.335549 7.04059 0.185199 7.50077 0.0667566C8.07383 -0.0807383 8.65796 0.264248 8.80544 0.837305ZM4.55027 2.59833C4.96243 3.02292 4.95237 3.70123 4.52779 4.1134C3.99751 4.62818 3.53977 5.21682 3.17121 5.86235C2.87781 6.37623 2.2234 6.55496 1.70953 6.26158C1.19565 5.96818 1.01691 5.31376 1.3103 4.79988C1.77944 3.97818 2.36151 3.22985 3.03521 2.57585C3.45979 2.16369 4.1381 2.17376 4.55027 2.59833ZM1.30881 7.4333C1.89476 7.51589 2.3028 8.05783 2.22021 8.64378C2.16927 9.00519 2.14286 9.37502 2.14286 9.75162C2.14286 10.3433 1.66316 10.823 1.07143 10.823C0.479694 10.823 0 10.3433 0 9.75162C0 9.27466 0.0334687 8.8049 0.0983317 8.3447C0.180917 7.75876 0.722867 7.35072 1.30881 7.4333ZM6.42857 12.5808V7.20379C6.42857 6.14182 7.54616 5.45112 8.49601 5.92605L13.8731 8.61456C14.926 9.14103 14.926 10.6436 13.8731 11.1701L8.49601 13.8586C7.54616 14.3335 6.42857 13.6428 6.42857 12.5808Z" fill="#2947E5"/>
</g>
</svg>
